<svg id="Layer_1" data-name="Layer 1" xmlns="http://www.w3.org/2000/svg" viewBox="0 0 184 166.13"><defs><style>.cls-1{fill:#0c3854;}.cls-2{fill:#168cb7;}</style></defs><title>Artboard 1</title><path class="cls-1" d="M68.73,99.1c-1.12-1.69-2.93-2.53-4.49-3.68A46.69,46.69,0,0,1,45.09,64.08a47.31,47.31,0,0,1,25.14-49.2c.19-.09.41-.14.93-.31-1.85,4.75-4,9.18-4.66,14a37.61,37.61,0,0,1-6.25,16.24c-4.63,6.9-5.89,14.93-4.51,23.23,0,.43,0,.86,0,1.29,3.62,15.46,12.86,25.53,28.43,29.34,19.24,4.7,39.8-8.55,43.71-28,2.22-11,.06-21.05-6.71-30a8.44,8.44,0,0,1-1.37-4.33c-.86-6.33-3-12.3-5.28-18.24-.34-.9-.67-1.81-1-2.81,9.26,3.12,21.16,15.71,24.67,30.61,4.53,19.23-2.88,41.59-24.69,53.63,1.23.05,2.06.12,2.89.13q30.18,0,60.36,0a2.84,2.84,0,0,1,2.48,4.25c-.29.57-.78.51-1.25.52-1.39,0-2.78,0-4.17,0H7.47c-2.57,0-3.54-1.47-2.7-4,.38-1.17,1.32-.77,2-.77,5.24,0,10.47,0,15.71,0l46.12,0a2.06,2.06,0,0,0,2.32,0C70.18,99.2,69.59,98.66,68.73,99.1Z"/><path class="cls-1" d="M4.42,151.56a5.18,5.18,0,0,0,.24-.63c.5-4.27.5-4.26,4.77-4.26l167,0c2.61,0,3.7,1.68,2.79,4.23a.85.85,0,0,1-.86.66c-.57,0-1.15,0-1.72,0H4.42Z"/><path class="cls-2" d="M99.48,21.82a17.86,17.86,0,0,1,7.37,1.59c3,1.28,5.45,2.9,4.8,6.83a11.52,11.52,0,0,0,.41,3.13c.07.61.57,1.39-.11,1.78s-1.2-.29-1.73-.64c-2-1.34-3.29-3.4-5-5.06s-3.77-3.35-6.49-3.61c-6.73-.65-8.59,4.93-6.65,9.69,1.06,2.62,3.25,4.29,5.62,5.62,3.46,1.93,7,3.66,10.52,5.53A26.13,26.13,0,0,1,115,51.47a14,14,0,0,1-1.27,20.3c-.57.45-1.22,1.2-1.87.62s.06-1.28.44-1.9c3.53-5.71,2.6-10.54-2.86-14.48C106,53.52,102.1,51.8,98.35,49.8A43.66,43.66,0,0,1,91,45a13.66,13.66,0,0,1-4.42-15.42C88.41,24.58,93.09,21.77,99.48,21.82Z"/><path class="cls-2" d="M64.15,75.86c4.44-1.27,7.61-4.35,10.77-7.31S81,62,84.19,58.78c4.3-4.32,9.08-5.19,14.62-2.9.81.34.81,1.11,1.3,1.61s-.4.7-.8.91c-3.72,1.9-6.54,4.84-9.29,7.88A51.6,51.6,0,0,1,82,74.13C76.34,78.13,70.36,78.26,64.15,75.86Z"/><path class="cls-2" d="M73.9,81.78C80.19,80.47,84.08,76,88.2,71.66c3.25-3.39,5.94-7.39,10.33-9.61,4.17-2.1,8.57-1.35,12.08,2.39-4.55.2-6.43,3.86-8.93,6.61-3.24,3.56-6.22,7.37-10.39,10C85.66,84.49,79.88,84.46,73.9,81.78Z"/><path class="cls-2" d="M148.94,141H138.53a3.42,3.42,0,0,1,.07-.5c2.71-.1,3.26-1.71,3.13-4.08-.15-2.77,0-5.56,0-8.34,0-4.22,0-4.22-4.33-5.63,2.77-.43,5-1.16,7.29-.81,2.06.32.25,2.29,1.34,3.26,1.85-1.67,3.87-3.47,6.91-3.37a6.21,6.21,0,0,1,5.3,2.5c.88,1.25,1.36,1.17,2.33.13a8.29,8.29,0,0,1,8-2.49c2.91.55,4.74,3.17,4.8,6.57,0,2.78.11,5.56,0,8.33-.06,2.19.11,4.07,3.44,3.68-1.73,1.19-7.89,1.35-11.09.41,4.07-.48,3.74-3.22,3.76-5.75,0-2.21,0-4.42,0-6.62-.09-3.17-1.41-4.64-4.11-4.69s-5.83,2.31-5.91,4.79c-.08,2.94.08,5.89,0,8.82-.07,2.32,1.2,3.17,3.23,3.72H152.54c3.93-.76,3-3.88,3.15-6.44a63.56,63.56,0,0,0,0-6.62c-.18-2.83-1.82-4.34-4.34-4.27-2.69.08-5.65,2.48-5.71,4.75-.07,2.94,0,5.89,0,8.83,0,2.25,1.14,3.39,3.84,3.1Z"/><path class="cls-2" d="M55.79,69.31c0-.43,0-.86,0-1.29,4.31-.91,7.32-3.78,10.21-6.82,3.38-3.54,6.31-7.51,10.2-10.55,4.63-3.6,9.61-3.41,14.19.67C84.46,53.81,81,58.87,77,63.32a26.62,26.62,0,0,1-7.06,6,13.26,13.26,0,0,1-10.89.89C58,69.86,57,69.18,55.79,69.31Z"/><path class="cls-2" d="M87.5,131.14c2.12-1.88,3.75-3.24,5.28-4.7,1.9-1.81,1.75-2.64-1-4.18H102.4c-4.68.25-7.05,4.08-10.28,6.62-.93.73-.72,1.21,0,1.89,2.8,2.62,5.59,5.26,8.34,7.93a9.69,9.69,0,0,0,4,1.88,8,8,0,0,1-8.56-1.11c-2.61-2.46-5.27-4.86-8.16-7.21.33,2.93-1.42,6.17,1.92,8.82a54.73,54.73,0,0,1-9.06,0c3.39-1.73,2.92-4.33,2.92-6.74q0-10.92,0-21.83c0-1.25.25-2.67-1.21-3.46-.29-.15-.6-.36-.27-.72,1.22-1.33,2.87-.91,4.37-1s1.06,1.17,1.06,2c0,6.22,0,12.43,0,18.64Z"/><path class="cls-2" d="M129.33,121.63a15.82,15.82,0,0,1,.19,7.82c-3.08-5.34-8.1-2.08-12.21-2.88-.64-.12-.69.55-.69,1.05,0,3.43,0,6.86,0,10.29,0,1.32,1.12,1.62,2.06,1.66a66.12,66.12,0,0,0,8.56.07,5.08,5.08,0,0,0,4.11-2.74c.35-.66.48-1.62,1.87-1.63-.38,1.64-.7,3.18-1.1,4.7-.19.69-.44,1.32-1.45,1.31-7.19-.05-14.38-.05-21.57-.08-.18,0-.36-.22-1.1-.7,4.58-.23,4.16-3.23,4.16-6q0-9.57,0-19.13c0-1.41-.09-2.78-1.24-3.81s-.34-1.37.63-1.37c6.37,0,12.74,0,19.12,0,.63,0,1.19.12,1.15.9s.37,1.71-.4,2.3-1-.44-1.49-.73a4,4,0,0,0-2.23-.84c-3.19,0-6.38,0-9.56,0-1.14,0-1.61.34-1.59,1.53.06,3.35.05,6.7,0,10,0,1.18.43,1.59,1.58,1.55,1.88-.07,3.76,0,5.64,0C126.26,124.92,128.64,124.86,129.33,121.63Z"/><path class="cls-2" d="M25.58,109.72a30,30,0,0,1,.09,7.44c-1.13-.24-.85-1-1-1.46a7.37,7.37,0,0,0-10-4.23,4.47,4.47,0,0,0-1.72,6.81,13,13,0,0,0,4.1,3.44,64.55,64.55,0,0,1,7.41,4.78,8,8,0,0,1,2.48,9.89c-1.62,3.54-6.05,6-9.65,5.21-1.66-.36-3.28-.93-4.93-1.35-.52-.14-1.09-.71-1.61-.25-3.09,2.75-1.8-.73-1.81-1.42a20.37,20.37,0,0,1,.18-5.72c.92.28.84.84.94,1.3A7.71,7.71,0,0,0,20.1,140c4.31-1.42,5.27-6,1.88-9.07-2.63-2.36-5.89-3.81-8.77-5.8a8.66,8.66,0,0,1-4.12-6.61c-.53-6.66,5.3-10.55,12.43-8.34C22.85,110.56,24.23,111.56,25.58,109.72Z"/><path class="cls-2" d="M56.68,141.35c-2.13,0-4.27.11-6.4,0-1.75-.12-.37-1.82-1.29-2.62a12.53,12.53,0,0,1-4.84,2.75c-4.27,1-8-1.54-8.2-5.93-.14-2.77,0-5.55-.09-8.33,0-1.32.35-2.81-1.07-3.79-.35-.25-.33-1,0-1.1a8.08,8.08,0,0,1,3.85-.19c1.08.08,1.06,1,1.06,1.89,0,3.43,0,6.86,0,10.29,0,2.22.45,4.26,3,5A5.71,5.71,0,0,0,48.92,137a2.11,2.11,0,0,0,.42-1.1c0-3.67,0-7.35,0-11a2.53,2.53,0,0,0-.25-.92c-.26-.64-2-.79-1-1.69,1.18-1.11,3-.75,4.48-.65,1.11.08.74,1.09.74,1.75,0,4.24,0,8.49,0,12.74,0,3.58,0,3.58,3.32,4.46Z"/><path class="cls-2" d="M68.33,132.53c-1.46,0-2.93,0-4.4,0-.78,0-1.19-.37-1.13-1.22s.51-.93,1.15-.94c2.94,0,5.87,0,8.8,0,.79,0,1.19.24,1.19,1.11s-.44,1.11-1.21,1.1c-1.46,0-2.93,0-4.4,0Z"/><path class="cls-1" d="M68.73,99.1c.86-.44,1.45.1,2.23.54a2.06,2.06,0,0,1-2.32,0Z"/></svg>